<svg xmlns="http://www.w3.org/2000/svg" width="127.1" height="127.1" viewBox="366.4 366.4 127.1 127.1" xml:space="preserve"><circle cx="430" cy="430" r="63.6"/><path fill="#002A80" d="M443.6 449 420 467.1c4 3.4 20 17.8 21.4 19.2a57 57 0 0 0 21-9c-2.4-5-18.8-28.3-18.8-28.3z"/><path fill="#0073DA" d="M478.8 433c-.2-.7-.8-.8-1.4-.5l-6.6 2.5-.9.3c-.1-.9-.1-1.7-.4-2.4-.2-.8 0-1.2.6-1.7a387.5 387.5 0 0 0 6.9-6c.1-.2 0-.7-.1-.8-.2-.2-.6-.3-1-.2-.2 0-.4.3-.6.5l-6.6 5.5-5.4-7.3c-.7-.9-.5-1.5-.1-2.3 1-2 9.7-24.2 4-27.7-5.5-3.4-16.3 8.5-19.6 13.9-.6 1-1 1.2-1.8.6a14.5 14.5 0 0 0-5.6-2l-27.8-1.7s-15.6-13.6-20-16.8a57.1 57.1 0 0 0 23 98.8l7.4-13.2c.2-.3.5-.5.9-.6h1.4c5.7-3.3 10.5-7.5 15.6-11.4l1.5-1.3 3.4-2.9c-1 0 21.8-14.7 22.1-14.5 1.5-.7 2.1-2 2.1-3.5 0-.8.3-1.2 1-1.4l7.1-2.7c.6-.2 1.1-.5.9-1.2z"/><path fill="#002A80" d="M449.3 416.2c-.2-.4-4.7-6.8-9.1-10.9a22.7 22.7 0 0 0-9.7-1.5h-3.7c-.7.1-1.3 0-1.7-.8-2-4.3-8-21.4-16.3-20.3-10.6 1.4-2 26.2-4.8 29.7a24.1 24.1 0 0 0-8.3 12.5 18 18 0 0 0 5 15.9c6.2 7 22.5 15.6 33 14.2 1-.2 2.2-.6 2.7-1.8-1.3-1.1 17.3-19 17.4-19 0-9.8-3.2-15.8-4.5-18z"/><path fill="#7ABAF8" d="M462.5 438.9a29 29 0 0 0-8.7-4.7c0 .2 0 5.9-.4 7.6l13.9 1.8.4-1.8c-.5-.3-3.9-1.6-5.2-3z"/><path fill="#C6DFF5" d="m454.2 456 3.9-.4a29 29 0 0 0 9.2-12l-.7-.2c-.7-.3-3.1-.7-4.5-1.8-1.4-1-3.5-2-6.3-1.6a13 13 0 0 0-2-5.8c-4 2.1-15.3 4.6-19.8 4v10.7l20.2 7z"/><path fill="#FFF" d="M457 442.2c.3-1-.1-1.6-1-1.7l-.9.1-4.7 1.2c-4.4 1-14.6-1-18.3-3.6l-4.4 7.4c2.2 1.2 8.9 5.7 11.3 8.3l1.8 2c.3 0 .6.3 1 .3l3.8.1 6-.2 2.6-.1 2.9-13.8z"/><path fill="#7ABAF8" d="M404.6 415.3c9 7.5 17.9 15 26.8 22.7a24 24 0 0 0 14.3 5 19 19 0 0 0 7.2-1.8c-2.4.3-4.6.7-7 .6-3.6-.2-9.3-2-14.1-5.8l-9.8-8.3-18-15.3-1.4 1.3 2 1.6zM439 454a50 50 0 0 0-11.5-9.2l-31.5-12c0 .3.4 1.6.8 2l30.2 11.6c2 .6 8.1 5.7 9.4 6.8l1 .5 3.4 2.2-1.8-2z"/><path fill="#000101" d="m442.3 427.7-10.7-6.6-1.5 5.1 11.2 4.3zM463.3 427l-2.6-3.3-4.9 4.6 1.6 2.3 5.9-3.5z"/></svg>