<svg xmlns="http://www.w3.org/2000/svg" xml:space="preserve" width="860" height="860">
  <circle id="bg" cx="430" cy="430" r="426.058"/>
  <g id="cat">
    <path fill="#002A80" d="M513 543 371.5 651.5c23.758 20.632 119.63 107.002 128.37 115.393 46.346-9.562 89.271-28.457 126.757-54.614C611.715 682.566 513 543 513 543z"/>
    <path fill="#0073DA" d="M724.627 446.499c-1.295-4.162-4.942-4.517-8.438-3.205-13.324 4.994-26.568 10.199-39.852 15.307-1.582.607-3.213 1.089-4.955 1.673-.828-5.202-.984-9.935-2.418-14.239-1.573-4.736.052-7.355 3.559-10.188 12.029-9.707 23.898-19.617 35.736-29.56 2.121-1.779 4.254-3.842 5.511-6.229.72-1.359.306-4.261-.755-5.353-1.057-1.09-3.67-1.326-5.377-.941-1.588.359-2.909 1.988-4.295 3.127-13.275 10.986-26.545 21.984-39.65 32.854-10.839-15.008-21.072-29.895-32.143-44.121-3.975-5.108-3.268-8.563-.717-13.758 5.729-11.664 58.29-145.303 24.6-166.031-33.688-20.728-98.269 50.666-118.326 83.327-3.427 5.576-5.433 7.355-10.604 3.527-9.807-7.259-22.924-10.111-34.004-12.436.036.051-166.834-9.914-166.834-9.914S232 189 205.038 169.753C132.13 232.829 86.001 326.027 86.001 430c0 160.189 109.494 294.802 257.721 333.087 14.848-26.383 29.657-52.784 44.637-79.093.921-1.615 3.044-3.105 4.867-3.521 2.873-.648 5.969-.341 8.967-.438 33.715-19.205 62.693-44.879 93.281-68.344 3.205-2.459 6.352-5.001 9.462-7.58 6.892-5.705 13.619-11.612 20.479-17.354-6.211-.153 130.583-88.509 132.597-87.461 9.135-4.075 12.621-11.858 12.861-21.11.117-4.526 1.447-6.924 5.674-8.437 14.354-5.141 28.607-10.54 42.906-15.822 3.496-1.281 6.483-3.224 5.174-7.428z"/>
    <path fill="#002A80" d="M547.435 345.447c-1.408-2.46-28.185-40.697-54.938-65.198-21.707-8.236-37.455-10.071-58.376-9.422-7.413.232-14.821.789-22.235.854-4.066.036-7.51-.922-9.67-5.477-12.209-25.747-48.38-128.704-98.047-122.125C240.531 152.51 292 301.5 275.258 322.55c-28.114 25.739-45.259 50.708-49.926 75.66-5.945 31.788 1.835 64.291 29.504 95.291 37.985 42.558 135.834 93.5 198.262 85.483 6.879-1.479 13.604-3.635 16.859-10.909l.001-.001h-.001c-7.753-6.944 103.625-113.921 104.426-114.477-.113-58.522-19.286-94.806-26.948-108.15z"/>
    <path fill="#7ABAF8" d="M626.627 482.021c-8.001-8.104-27.275-17.68-38.591-23.24-3.121-1.537-10.274-4.164-13.653-5.185.444 1.228.08 35.365-2.383 45.729.001 0 82.039 10.636 83.44 11.118.854-3.712 1.713-7.422 2.566-11.145-2.781-1.444-23.378-9.173-31.379-17.277z"/>
    <path fill="#C6DFF5" d="M576.893 584.653c7.73-.753 15.466-1.505 23.197-2.259 20.077-15.563 47.41-45.896 55.346-71.952-1.396-.482-2.795-1.001-4.188-1.525-4.174-1.574-18.602-4.31-27.05-10.363s-20.698-11.721-37.817-9.938h-.002c1.121-11.622-10.811-34.329-11.997-35.018-23.507 12.82-91.757 27.885-119.177 24.022.001 0 .001.001.001.001l-.001 64.54 121.688 42.492z"/>
    <path fill="#FFF" d="M594.034 502.127c1.328-6.295-1.115-9.996-5.953-10.469-1.612-.158-3.49.043-5.584.627-9.394 2.619-18.861 4.962-28.297 7.427-26.825 5.538-88.075-6.587-109.95-21.712-5.125 7.078-24.165 40.616-26.809 44.499 13.516 7.259 53.485 33.817 67.771 49.797 3.564 3.986 7.354 7.777 11.043 11.656-.002-.001-.003-.002-.005-.003l.003.003c1.924.743 3.814 2.022 5.771 2.13 7.785.427 15.592.488 23.389.686l35.479-1.455 16-.652v-.001c1.495-8.835 13.187-63.799 17.142-82.533z"/>
    <path fill="#7ABAF8" d="M278.593 339.986c53.861 45.439 107.711 90.894 161.479 136.44C472 499.5 501.25 506.569 525.789 506.553c21.468-.015 43.275-10.678 43.275-10.678-14.368 2.015-27.918 4.315-42.443 3.526-21.184-1.151-55.371-11.651-84.646-34.611-19.465-16.712-39.103-33.221-58.615-49.87-36.057-30.767-72.067-61.577-108.103-92.37-2.796 1.768-6.135 5.138-8.377 7.969 4.532 3.653 7.269 5.717 11.713 9.467z"/>
    <path fill="#7ABAF8" d="M485.216 572.295c-14.286-15.979-44.216-41.369-68.729-54.554-61.083-23.228-189.297-72.607-189.297-72.607.312 2.085 2.562 10.116 4.457 12.67 0 0 127.062 48.484 181.693 69.371 11.663 3.751 48.866 33.954 56.618 40.899h.001c1.841.954 3.753 1.794 5.515 2.881 6.951 4.289 13.858 8.655 20.782 12.994.002.001.003.002.005.003-3.692-3.88-7.481-7.671-11.045-11.657z"/>
    <path fill="#000101" d="m505.438 414.58-64.727-39.428-8.71 30.598 67.248 26z"/>
    <path fill="#000101" d="M631.438 410.932 615.749 391l-29.134 27.622 9.245 13.28 35.578-20.97z"/>
  </g>
  <g id="text" fill="#FFF">
    <path d="M152.843 194.391c-7.418 8.857-19.763 9.711-28.405 2.475l-.085-.072c-8.556-7.164-10.164-19.482-2.423-28.727 4.752-5.677 9.488-7.488 14.58-7.979l1.33 8.281c-4.052.559-7.32 1.842-9.842 4.852-4.249 5.074-3.095 12.258 2.064 16.578l.087.072c5.158 4.32 12.447 4.352 16.769-.808 2.879-3.44 3.268-6.698 3.098-10.864l7.785-.648c.719 5.867-.098 11.036-4.958 16.84z"/>
    <path d="M183.566 162.404c-8.913 8.204-21.423 7.447-28.98-.762l-.076-.083c-7.558-8.212-7.271-20.899 1.641-29.104 8.913-8.202 21.423-7.446 28.98.764l.077.083c7.559 8.21 7.271 20.899-1.642 29.102zm-5.002-22.988c-4.558-4.951-11.985-5.734-17.103-1.025-5.116 4.711-4.942 12.02-.386 16.971l.077.084c4.558 4.949 11.987 5.734 17.103 1.023 5.115-4.709 4.942-12.018.385-16.97l-.076-.083z"/>
    <path d="m222.06 131.045-6.219 4.413-35.824-23.052 7.774-5.518 24.369 16.604-7.634-28.484 7.592-5.389 9.942 41.426z"/>
    <path d="M243.92 116.661 224.309 82.66l7.48-4.313 19.612 33.999-7.481 4.315z"/>
    <path d="m277.21 99.206-13.936 6.338-16.253-35.731 13.936-6.338c11.23-5.109 22.495-.93 27.069 9.127l.046.102c4.574 10.055.367 21.394-10.862 26.502zm2.644-22.765c-2.879-6.33-9.237-8.797-15.669-5.872l-6.075 2.763 9.798 21.541 6.075-2.762c6.432-2.927 8.796-9.238 5.918-15.568l-.047-.102z"/>
    <path d="m355.145 73.213-5.572-7.702-16.126 3.939-1.397 9.405-8.553 2.09 6.962-42.402 7.736-1.889 25.726 34.417-8.776 2.142zm-18.469-25.509-2.047 13.604 10.135-2.475-8.088-11.129z"/>
    <path d="M389.369 68.543c-11.47 1.379-21.053-6.449-22.396-17.639l-.014-.111c-1.333-11.079 5.928-21.158 17.897-22.598 7.349-.883 12.042 1.037 16.089 4.166l-4.699 6.946c-3.336-2.366-6.598-3.668-10.496-3.2-6.568.791-10.645 6.814-9.841 13.496l.013.111c.803 6.681 6.094 11.693 12.774 10.891 4.454-.537 6.968-2.646 9.69-5.799l6.119 4.855c-3.487 4.771-7.62 7.979-15.136 8.882z"/>
    <path d="m433.537 34.266.086 31.292-8.636.024-.087-31.293-11.944.032-.021-7.964 32.525-.089.022 7.964-11.945.034z"/>
    <path d="m456.471 66.49 3.312-39.115 8.604.728-3.307 39.115-8.609-.728z"/>
    <path d="M497.282 72.501c-11.901-2.247-18.771-12.731-16.695-23.695l.021-.11c2.065-10.965 12.416-18.312 24.313-16.064 11.901 2.248 18.77 12.73 16.696 23.695l-.021.109c-2.067 10.964-12.412 18.312-24.314 16.065zm15.447-17.74c1.247-6.611-2.56-13.037-9.392-14.327-6.833-1.29-12.592 3.215-13.839 9.828l-.021.109c-1.245 6.611 2.563 13.037 9.396 14.326 6.832 1.291 12.589-3.215 13.839-9.826l.017-.11z"/>
    <path d="m554.836 87.518-10.099-29.696-7.923 23.659-8.082-2.707 12.467-37.217 7.55 2.529 9.762 28.756 7.68-22.915 8.08 2.707-12.468 37.217-6.967-2.333z"/>
    <path d="m616.941 117.088-4.402-31.06-12.188 21.775-7.438-4.161 19.168-34.256 6.949 3.89 4.248 30.073 11.803-21.092 7.438 4.162-19.168 34.255-6.41-3.586z"/>
    <path d="M649.078 139.638c-9.677-7.286-11.189-19.729-4.479-28.644l.068-.09c6.715-8.914 19.246-10.92 28.923-3.634 9.677 7.288 11.188 19.729 4.479 28.644l-.067.09c-6.716 8.915-19.247 10.922-28.924 3.634zm21.709-9.065c4.049-5.376 3.479-12.825-2.074-17.009-5.556-4.184-12.714-2.695-16.762 2.682l-.068.09c-4.048 5.377-3.479 12.824 2.075 17.008 5.555 4.184 12.714 2.693 16.762-2.682l.067-.089z"/>
    <path d="m702.91 188.32-5.231-5.396 12.277-24.237-24.61 11.513-5.229-5.396 19.063-37.141 6.439 6.645-13.428 24.34 25.296-12.256 5.147 5.314-13.039 24.901 24.747-12.661 6.284 6.484-37.716 17.89z"/>
    <path d="m717.68 206.225 7.155-5.414 5.483 7.244-7.156 5.414-5.482-7.244zm37.056-16.088-.896.678-21.354 12.855-2.846-3.756 18.18-17.061.894-.676 6.022 7.96z"/>
    <path d="M756.791 244.492c-2.267-4.001-.85-9.12 3.151-11.387 4.001-2.266 9.12-.85 11.387 3.152 2.266 4 .849 9.121-3.152 11.387-4 2.266-9.121.848-11.386-3.152z"/>
    <path d="M772.079 306.498c-3.993-10.84 1.408-21.975 11.985-25.871l.104-.039c10.474-3.857 21.958.877 26.126 12.191 2.56 6.946 1.775 11.956-.333 16.617l-7.846-2.967c1.528-3.791 2.044-7.268.687-10.951-2.287-6.209-9.091-8.782-15.407-6.455l-.104.038c-6.314 2.326-9.968 8.633-7.643 14.947 1.552 4.21 4.186 6.169 7.884 8.094l-3.313 7.075c-5.446-2.296-9.523-5.574-12.14-12.679z"/>
    <path d="M784.571 349.086c-2.699-11.809 4.166-22.293 15.046-24.78l.104-.024c10.884-2.487 21.751 4.061 24.449 15.867 2.698 11.809-4.166 22.293-15.045 24.78l-.109.024c-10.874 2.486-21.745-4.059-24.445-15.867zm22.438 7.066c6.563-1.5 10.927-7.559 9.378-14.338-1.548-6.779-7.979-10.257-14.541-8.758l-.104.025c-6.563 1.499-10.932 7.559-9.379 14.338 1.549 6.779 7.979 10.256 14.542 8.757l.104-.024z"/>
    <path d="m792.738 398.076-.756-7.588 37.766-19.705.943 9.485-26.49 12.948 28.521 7.477.923 9.263-40.907-11.88z"/>
    <path d="m794.403 424.191 39.253-.193.043 8.635-39.253.193-.043-8.635z"/>
    <path d="m793.066 461.748 1.406-15.244 39.094 3.617-1.412 15.244c-1.14 12.285-10.354 19.993-21.354 18.975l-.107-.01c-11.005-1.017-18.764-10.297-17.627-22.582zm18.455 13.592c6.924.645 12.222-3.656 12.868-10.688l.616-6.646-23.563-2.181-.615 6.646c-.651 7.036 3.656 12.225 10.581 12.862l.113.007z"/>
    <path d="m776.887 542.238 9.455-.999 4.615-15.943-7.458-5.896 2.448-8.457 33.295 27.149-2.214 7.649-42.651 5.163 2.51-8.666zm31.314-3.309-10.775-8.55-2.897 10.021 13.672-1.471z"/>
    <path d="M763.872 574.252c4.52-10.629 16.081-15.035 26.452-10.624l.103.044c10.271 4.365 15.392 15.682 10.671 26.775-2.896 6.811-6.896 9.922-11.629 11.871l-3.68-7.535c3.713-1.712 6.468-3.896 8.004-7.504 2.588-6.088-.603-12.625-6.794-15.258l-.104-.047c-6.19-2.633-13.176-.544-15.81 5.646-1.755 4.129-1.179 7.359.194 11.293l-7.259 2.885c-2.388-5.4-3.11-10.58-.148-17.546z"/>
    <path d="m771.633 629.618-27.199-15.478 4.271-7.506 27.199 15.478 5.902-10.382 6.926 3.938-16.084 28.27-6.922-3.938 5.907-10.382z"/>
    <path d="m732.279 633.535 32.319 22.262-4.896 7.11-32.323-22.261 4.9-7.111z"/>
    <path d="M706.834 665.98c7.851-9.228 20.36-9.99 28.857-2.76l.085.072c8.497 7.233 9.751 19.863 1.896 29.086-7.853 9.227-20.357 9.989-28.854 2.756l-.085-.068c-8.499-7.234-9.752-19.863-1.899-29.086zm7.75 22.211c5.124 4.358 12.593 4.235 17.101-1.059 4.511-5.296 3.448-12.53-1.675-16.893l-.086-.072c-5.123-4.361-12.594-4.24-17.1 1.055-4.509 5.296-3.449 12.529 1.675 16.896l.085.073z"/>
    <path d="m665.248 708.541 30.801 5.952-16.621-18.614 6.358-5.677 26.145 29.28-5.938 5.304-29.817-5.778 16.103 18.028-6.359 5.677-26.146-29.28 5.474-4.892z"/>
    <path d="m608.729 747.705 29.132 11.656-12.813-21.416 7.314-4.377 20.15 33.688-6.834 4.088-28.19-11.299 12.408 20.742-7.315 4.377-20.153-33.689 6.301-3.77z"/>
    <path d="M573.179 764.321c11.142-4.767 22.684.122 27.067 10.384l.044.103c4.388 10.265-.114 22.127-11.252 26.894-11.138 4.762-22.68-.123-27.067-10.384l-.043-.104c-4.388-10.265.113-22.131 11.251-26.893zm-2.95 23.339c2.646 6.188 9.392 9.404 15.781 6.671 6.396-2.733 8.669-9.683 6.022-15.871l-.044-.103c-2.646-6.188-9.393-9.404-15.781-6.67-6.396 2.729-8.668 9.683-6.022 15.867l.044.106z"/>
    <path d="m504.145 786.826 7.279-1.859 14.942 22.689 2.226-27.076 7.281-1.86 22.771 34.983-8.965 2.291-14.457-23.738-1.922 28.039-7.172 1.832-15.136-23.681-1.299 27.765-8.746 2.234 3.198-41.619z"/>
    <path d="m481.246 790.789 1.159 8.898-9.009 1.172-1.158-8.897 9.008-1.173zm-4.386 40.157-.146-1.112-.587-24.92 4.671-.607 5.814 24.238.145 1.113-9.897 1.288z"/>
    <path d="M428.666 805.813c4.598.017 8.345 3.779 8.332 8.383-.013 4.598-3.779 8.345-8.379 8.332-4.598-.017-8.345-3.779-8.332-8.383.012-4.598 3.779-8.345 8.379-8.332z"/>
    <path d="M367.24 788.329c11.389 1.92 18.367 12.136 16.494 23.251l-.021.109c-1.854 11.003-11.667 18.613-23.555 16.609-7.298-1.229-11.256-4.396-14.253-8.543l6.471-5.335c2.529 3.212 5.29 5.384 9.161 6.036 6.521 1.1 12.137-3.526 13.256-10.161l.021-.11c1.114-6.635-2.538-12.938-9.178-14.056-4.423-.746-7.43.567-10.937 2.819l-4.496-6.391c4.702-3.578 9.572-5.487 17.037-4.228z"/>
    <path d="M324.107 777.982c11.582 3.543 17.254 14.719 13.987 25.391l-.029.104c-3.267 10.676-14.356 16.843-25.938 13.3-11.584-3.543-17.256-14.723-13.992-25.393l.033-.104c3.264-10.673 14.356-16.841 25.939-13.298zm-17.306 15.936c-1.967 6.436 1.112 13.241 7.762 15.275 6.649 2.033 12.868-1.813 14.841-8.246l.028-.107c1.972-6.436-1.106-13.241-7.76-15.271-6.646-2.033-12.869 1.813-14.837 8.247l-.034.102z"/>
    <path d="m277.573 760.653 6.956 3.126-1.725 42.563-8.696-3.902 1.97-29.429-20.692 21.017-8.491-3.814 30.678-29.561z"/>
    <path d="m254.065 749.092-19.333 34.158-7.516-4.254 19.334-34.158 7.515 4.254z"/>
    <path d="m222.115 729.285 12.541 8.783-22.523 32.15-12.541-8.779c-10.104-7.078-12.229-18.905-5.889-27.953l.063-.097c6.339-9.045 18.244-11.182 28.349-4.104zm-20.953 9.289c-3.99 5.691-2.885 12.426 2.903 16.479l5.466 3.828 13.578-19.384-5.467-3.829c-5.787-4.054-12.426-2.885-16.416 2.813l-.064.093z"/>
    <path d="m160.211 675.311-3.819 8.706 11.558 11.911 8.817-3.555 6.13 6.318-40.086 15.45-5.543-5.714 16.658-39.6 6.285 6.484zm-12.648 28.835 12.766-5.12-7.262-7.486-5.504 12.606z"/>
    <path d="M138.888 648.129c6.98 9.203 5.062 21.426-3.917 28.236l-.09.063c-8.89 6.743-21.255 5.565-28.539-4.039-4.473-5.896-5.185-10.916-4.527-15.985l8.368.549c-.358 4.072.165 7.547 2.536 10.674 3.998 5.271 11.256 5.747 16.618 1.686l.089-.068c5.36-4.066 7.016-11.162 2.949-16.523-2.711-3.568-5.8-4.678-9.898-5.438l1.102-7.731c5.879.597 10.734 2.546 15.309 8.576z"/>
    <path d="m87.013 627.342 26.96-15.879 4.383 7.441-26.96 15.879 6.06 10.291-6.86 4.04-16.504-28.022 6.86-4.041 6.061 10.291z"/>
    <path d="m103.214 591.24-35.415 16.928-3.725-7.791 35.416-16.929 3.724 7.792z"/>
    <path d="M87.75 552.998c4.093 11.4-1.467 22.632-11.97 26.402l-.104.033c-10.504 3.771-22.081-1.426-26.174-12.822-4.094-11.4 1.468-22.631 11.971-26.402l.104-.037c10.503-3.772 22.081 1.427 26.173 12.826zm-23.122-4.329c-6.333 2.274-9.944 8.813-7.594 15.357 2.35 6.544 9.15 9.226 15.483 6.952l.107-.037c6.333-2.274 9.942-8.813 7.593-15.358-2.349-6.544-9.151-9.226-15.484-6.952l-.105.038z"/>
    <path d="m71.476 495.766-20.45 23.785 24.406-5.188 1.772 8.337-38.392 8.167-1.658-7.788 19.813-23.021-23.639 5.027-1.774-8.336 38.393-8.167 1.529 7.184z"/>
    <path d="M65.433 427.291 40.89 446.826l24.947-.53.181 8.521-39.242.833-.169-7.961 23.771-18.9-24.161.514-.182-8.521 39.243-.834.155 7.343z"/>
    <path d="M68.634 388.152c-1.392 12.032-11.36 19.628-22.446 18.344l-.111-.012c-11.084-1.284-19.151-11.083-17.758-23.113 1.392-12.032 11.36-19.628 22.445-18.344l.111.013c11.085 1.284 19.152 11.08 17.759 23.112zm-18.797-14.143c-6.685-.774-12.822 3.483-13.622 10.39-.8 6.907 4.104 12.33 10.789 13.104l.111.014c6.685.773 12.822-3.479 13.621-10.391.801-6.907-4.104-12.33-10.787-13.104l-.112-.013z"/>
    <path d="m83.43 317.1-2.012 7.238L54.304 326l22.372 15.41-2.011 7.239-41.676 2.329 2.478-8.914 27.783-.719-23.358-15.625 1.981-7.131 28.071-1.337-23.43-14.949 2.416-8.697 34.5 23.494z"/>
    <path d="m58.779 271.479 1.036.43 21.897 11.911-1.802 4.353L56 281.132l-1.036-.429 3.815-9.224zm32.629 23.816-8.291-3.43 3.473-8.396 8.291 3.43-3.473 8.396z"/>
    <path d="M104.001 243.167c-2.283 3.991-7.409 5.385-11.399 3.102-3.991-2.283-5.385-7.409-3.103-11.399 2.284-3.991 7.409-5.385 11.4-3.102 3.991 2.282 5.385 7.408 3.102 11.399z"/>
  </g>
</svg>
