<svg xmlns="http://www.w3.org/2000/svg" width="905" height="905" viewBox="342.526 337.52 905 905" xml:space="preserve"><path d="M1090.054 376.5H499.946c-85.052 0-154.267 69.219-154.267 154.267v519.466c0 85.053 69.219 154.268 154.267 154.268h590.16c85.052 0 154.267-69.219 154.267-154.268l-.052-519.519c0-85.053-69.219-154.267-154.267-154.267v.053zm-590.16 61.719h590.16c51.041 0 92.552 41.511 92.552 92.552v111.646L787.392 852.723l-380-210.213V530.708c0-51.041 41.511-92.552 92.553-92.552l-.051.063zm590.16 704.519-590.107-.053c-51.041 0-92.552-41.51-92.552-92.551v-337.1L786.821 922.82l395.786-210.626v337.927c0 51.041-41.51 92.553-92.552 92.553l-.001.064z"/></svg>